<svg width="329.26933" height="329" xmlns="http://www.w3.org/2000/svg">

 <g>
  <title>background</title>
  <rect fill="none" id="canvas_background" height="602" width="802" y="-1" x="-1"/>
 </g>
 <g>
  <title>Layer 1</title>
  <path fill="#707070" id="svg_1" d="m194.80078,164.76953l128.21094,-128.21484c8.34375,-8.33985 8.34375,-21.82422 0,-30.16406c-8.33984,-8.33985 -21.82422,-8.33985 -30.16406,0l-128.21485,128.21484l-128.21094,-128.21484c-8.34375,-8.33985 -21.82421,-8.33985 -30.16406,0c-8.34375,8.33984 -8.34375,21.82421 0,30.16406l128.21094,128.21484l-128.21094,128.21485c-8.34375,8.33984 -8.34375,21.82421 0,30.16406c4.15625,4.16015 9.6211,6.25 15.08203,6.25c5.46094,0 10.92188,-2.08985 15.08203,-6.25l128.21094,-128.21485l128.21485,128.21485c4.16015,4.16015 9.62109,6.25 15.08203,6.25c5.46094,0 10.92187,-2.08985 15.08203,-6.25c8.34375,-8.33985 8.34375,-21.82422 0,-30.16406l-128.21094,-128.21485zm0,0"/>
 </g>
</svg>