<svg width="136" height="136.21852" xmlns="http://www.w3.org/2000/svg">

 <g>
  <title>background</title>
  <rect fill="none" id="canvas_background" height="602" width="802" y="-1" x="-1"/>
 </g>
 <g>
  <title>Layer 1</title>
  <g id="surface1">
   <path id="svg_1" fill-rule="nonzero" fill="#ffffff" d="m93.148438,80.832031c16.351562,-23.089843 10.882812,-55.0625 -12.207032,-71.410156c-23.089844,-16.347656 -55.0625,-10.882813 -71.410156,12.210937c-16.347656,23.089844 -10.882812,55.058594 12.210938,71.40625c16.480468,11.667969 38.269531,12.566407 55.652343,2.300782l37.769531,37.542968c4.078126,4.292969 10.863282,4.464844 15.15625,0.386719c4.292969,-4.074219 4.464844,-10.859375 0.390626,-15.152343c-0.128907,-0.136719 -0.253907,-0.261719 -0.390626,-0.390626l-37.171874,-36.894531zm-41.839844,3.5c-18.246094,0.003907 -33.039063,-14.777343 -33.050782,-33.023437c-0.003906,-18.246094 14.777344,-33.039063 33.027344,-33.046875c18.222656,-0.007813 33.007813,14.75 33.042969,32.972656c0.03125,18.25 -14.742187,33.066406 -32.996094,33.097656c-0.007812,0 -0.011719,0 -0.023437,0zm0,0"/>
  </g>
 </g>
</svg>